<?xml version="1.0" encoding="UTF-8" standalone="no"?>
<!DOCTYPE svg PUBLIC "-//W3C//DTD SVG 1.1//EN"
 "http://www.w3.org/Graphics/SVG/1.1/DTD/svg11.dtd">
<!-- Generated by graphviz version 12.2.1 (20241206.2353)
 -->
<!-- Title: imdf_net_1738766393.169725 Pages: 1 -->
<svg width="250pt" height="70pt"
 viewBox="0.00 0.00 250.00 70.00" xmlns="http://www.w3.org/2000/svg" xmlns:xlink="http://www.w3.org/1999/xlink">
<g id="graph0" class="graph" transform="scale(1 1) rotate(0) translate(4 66)">
<title>imdf_net_1738766393.169725</title>
<polygon fill="white" stroke="none" points="-4,4 -4,-66 246,-66 246,4 -4,4"/>
<!-- 4665717744 -->
<g id="node1" class="node">
<title>4665717744</title>
<polygon fill="black" stroke="black" points="144,-49 90,-49 90,-13 144,-13 144,-49"/>
</g>
<!-- 4497098800 -->
<g id="node3" class="node">
<title>4497098800</title>
<ellipse fill="white" stroke="black" cx="211" cy="-31" rx="27" ry="27"/>
<ellipse fill="none" stroke="black" cx="211" cy="-31" rx="31" ry="31"/>
<text text-anchor="start" x="201.25" y="-18.98" font-family="Times,serif" font-size="32.00">■</text>
</g>
<!-- 4665717744&#45;&gt;4497098800 -->
<g id="edge1" class="edge">
<title>4665717744&#45;&gt;4497098800</title>
<path fill="none" stroke="black" d="M144.12,-31C151.63,-31 160.01,-31 168.22,-31"/>
<polygon fill="black" stroke="black" points="168.08,-34.5 178.08,-31 168.08,-27.5 168.08,-34.5"/>
</g>
<!-- 4497104512 -->
<g id="node2" class="node">
<title>4497104512</title>
<ellipse fill="white" stroke="black" cx="27" cy="-31" rx="27" ry="27"/>
<text text-anchor="start" x="16.88" y="-17.82" font-family="Times,serif" font-size="34.00">●</text>
</g>
<!-- 4497104512&#45;&gt;4665717744 -->
<g id="edge2" class="edge">
<title>4497104512&#45;&gt;4665717744</title>
<path fill="none" stroke="black" d="M54.4,-31C61.89,-31 70.18,-31 78.2,-31"/>
<polygon fill="black" stroke="black" points="78.1,-34.5 88.1,-31 78.1,-27.5 78.1,-34.5"/>
</g>
</g>
</svg>
